<mxfile host="app.diagrams.net" agent="Mozilla/5.0 (Windows NT 10.0; Win64; x64) AppleWebKit/537.36 (KHTML, like Gecko) Chrome/131.0.0.0 Safari/537.36" version="25.0.1">
  <diagram id="C5RBs43oDa-KdzZeNtuy" name="Page-1">
    <mxGraphModel dx="1404" dy="557" grid="1" gridSize="10" guides="1" tooltips="1" connect="1" arrows="1" fold="1" page="1" pageScale="1" pageWidth="827" pageHeight="1169" math="0" shadow="0">
      <root>
        <mxCell id="WIyWlLk6GJQsqaUBKTNV-0" />
        <mxCell id="WIyWlLk6GJQsqaUBKTNV-1" parent="WIyWlLk6GJQsqaUBKTNV-0" />
        <mxCell id="ZsVhFsh7vHjYy_OIHk2I-9" style="edgeStyle=orthogonalEdgeStyle;rounded=0;orthogonalLoop=1;jettySize=auto;html=1;exitX=0.5;exitY=1;exitDx=0;exitDy=0;exitPerimeter=0;entryX=0.5;entryY=0;entryDx=0;entryDy=0;" edge="1" parent="WIyWlLk6GJQsqaUBKTNV-1" source="ZsVhFsh7vHjYy_OIHk2I-0" target="ZsVhFsh7vHjYy_OIHk2I-3">
          <mxGeometry relative="1" as="geometry" />
        </mxCell>
        <mxCell id="ZsVhFsh7vHjYy_OIHk2I-0" value="START" style="strokeWidth=2;html=1;shape=mxgraph.flowchart.start_1;whiteSpace=wrap;" vertex="1" parent="WIyWlLk6GJQsqaUBKTNV-1">
          <mxGeometry x="340" y="50" width="100" height="60" as="geometry" />
        </mxCell>
        <mxCell id="ZsVhFsh7vHjYy_OIHk2I-1" value="PRINT &quot;FAIL&quot;" style="shape=parallelogram;html=1;strokeWidth=2;perimeter=parallelogramPerimeter;whiteSpace=wrap;rounded=1;arcSize=12;size=0.23;" vertex="1" parent="WIyWlLk6GJQsqaUBKTNV-1">
          <mxGeometry x="520" y="490" width="240" height="60" as="geometry" />
        </mxCell>
        <mxCell id="ZsVhFsh7vHjYy_OIHk2I-6" style="edgeStyle=orthogonalEdgeStyle;rounded=0;orthogonalLoop=1;jettySize=auto;html=1;exitX=0;exitY=0.5;exitDx=0;exitDy=0;exitPerimeter=0;" edge="1" parent="WIyWlLk6GJQsqaUBKTNV-1" source="ZsVhFsh7vHjYy_OIHk2I-2" target="ZsVhFsh7vHjYy_OIHk2I-5">
          <mxGeometry relative="1" as="geometry" />
        </mxCell>
        <mxCell id="ZsVhFsh7vHjYy_OIHk2I-13" value="YES" style="edgeLabel;html=1;align=center;verticalAlign=middle;resizable=0;points=[];" vertex="1" connectable="0" parent="ZsVhFsh7vHjYy_OIHk2I-6">
          <mxGeometry x="-0.4732" y="-8" relative="1" as="geometry">
            <mxPoint as="offset" />
          </mxGeometry>
        </mxCell>
        <mxCell id="ZsVhFsh7vHjYy_OIHk2I-7" style="edgeStyle=orthogonalEdgeStyle;rounded=0;orthogonalLoop=1;jettySize=auto;html=1;exitX=1;exitY=0.5;exitDx=0;exitDy=0;exitPerimeter=0;entryX=0.5;entryY=0;entryDx=0;entryDy=0;" edge="1" parent="WIyWlLk6GJQsqaUBKTNV-1" source="ZsVhFsh7vHjYy_OIHk2I-2" target="ZsVhFsh7vHjYy_OIHk2I-1">
          <mxGeometry relative="1" as="geometry" />
        </mxCell>
        <mxCell id="ZsVhFsh7vHjYy_OIHk2I-14" value="NO" style="edgeLabel;html=1;align=center;verticalAlign=middle;resizable=0;points=[];" vertex="1" connectable="0" parent="ZsVhFsh7vHjYy_OIHk2I-7">
          <mxGeometry x="-0.5462" y="12" relative="1" as="geometry">
            <mxPoint as="offset" />
          </mxGeometry>
        </mxCell>
        <mxCell id="ZsVhFsh7vHjYy_OIHk2I-2" value="MARK &amp;gt;= 50&amp;nbsp;" style="strokeWidth=2;html=1;shape=mxgraph.flowchart.decision;whiteSpace=wrap;" vertex="1" parent="WIyWlLk6GJQsqaUBKTNV-1">
          <mxGeometry x="305" y="290" width="170" height="150" as="geometry" />
        </mxCell>
        <mxCell id="ZsVhFsh7vHjYy_OIHk2I-3" value="READ MARK" style="shape=parallelogram;html=1;strokeWidth=2;perimeter=parallelogramPerimeter;whiteSpace=wrap;rounded=1;arcSize=12;size=0.23;" vertex="1" parent="WIyWlLk6GJQsqaUBKTNV-1">
          <mxGeometry x="270" y="180" width="240" height="60" as="geometry" />
        </mxCell>
        <mxCell id="ZsVhFsh7vHjYy_OIHk2I-5" value="PRINT &quot; PASS &quot;&amp;nbsp;" style="shape=parallelogram;html=1;strokeWidth=2;perimeter=parallelogramPerimeter;whiteSpace=wrap;rounded=1;arcSize=12;size=0.23;" vertex="1" parent="WIyWlLk6GJQsqaUBKTNV-1">
          <mxGeometry x="50" y="490" width="240" height="60" as="geometry" />
        </mxCell>
        <mxCell id="ZsVhFsh7vHjYy_OIHk2I-8" style="edgeStyle=orthogonalEdgeStyle;rounded=0;orthogonalLoop=1;jettySize=auto;html=1;exitX=0.5;exitY=1;exitDx=0;exitDy=0;entryX=0.5;entryY=0;entryDx=0;entryDy=0;entryPerimeter=0;" edge="1" parent="WIyWlLk6GJQsqaUBKTNV-1" source="ZsVhFsh7vHjYy_OIHk2I-3" target="ZsVhFsh7vHjYy_OIHk2I-2">
          <mxGeometry relative="1" as="geometry" />
        </mxCell>
        <mxCell id="ZsVhFsh7vHjYy_OIHk2I-10" value="END" style="strokeWidth=2;html=1;shape=mxgraph.flowchart.terminator;whiteSpace=wrap;" vertex="1" parent="WIyWlLk6GJQsqaUBKTNV-1">
          <mxGeometry x="350" y="610" width="100" height="60" as="geometry" />
        </mxCell>
        <mxCell id="ZsVhFsh7vHjYy_OIHk2I-11" style="edgeStyle=orthogonalEdgeStyle;rounded=0;orthogonalLoop=1;jettySize=auto;html=1;exitX=0.5;exitY=1;exitDx=0;exitDy=0;entryX=1;entryY=0.5;entryDx=0;entryDy=0;entryPerimeter=0;" edge="1" parent="WIyWlLk6GJQsqaUBKTNV-1" source="ZsVhFsh7vHjYy_OIHk2I-1" target="ZsVhFsh7vHjYy_OIHk2I-10">
          <mxGeometry relative="1" as="geometry" />
        </mxCell>
        <mxCell id="ZsVhFsh7vHjYy_OIHk2I-12" style="edgeStyle=orthogonalEdgeStyle;rounded=0;orthogonalLoop=1;jettySize=auto;html=1;exitX=0.5;exitY=1;exitDx=0;exitDy=0;entryX=0;entryY=0.5;entryDx=0;entryDy=0;entryPerimeter=0;" edge="1" parent="WIyWlLk6GJQsqaUBKTNV-1" source="ZsVhFsh7vHjYy_OIHk2I-5" target="ZsVhFsh7vHjYy_OIHk2I-10">
          <mxGeometry relative="1" as="geometry" />
        </mxCell>
      </root>
    </mxGraphModel>
  </diagram>
</mxfile>
